# xmcd
#
# Track frame offsets: 
#        150
#        13812
#        26037
#        38307
#        57455
#        72177
#        88327
#        110135
#        124270
#        137155
#        153517
#        167310
#        183680
#        198330
#        211760
#        227635
#        242567
#        257625
#        268560
#        281715
#        293932
#        304965
#
# Disc length: 4222 seconds
#
# Revision: 2
# Processed by: cddbd v1.5.2PL0 Copyright (c) Steve Scherf et al.
# Submitted via: ExactAudioCopy v1.1
#
DISCID=46107c16
DTITLE=Merle Haggard - I Love Country
DYEAR=1988
DGENRE=Country
TTITLE0=Big City
TTITLE1=Kern River
TTITLE2=You Take Me For Granted
TTITLE3=Are The Good Times Really Over (I Wish A Buck Was Still Silver
TTITLE3=)
TTITLE4=Reasons To Quit (with Willie Nelson)
TTITLE5=What Am I Gonna Do (With The Rest Of My Life)
TTITLE6=Going Where The Lonely Go
TTITLE7=Natural High (with Janie Fricke)
TTITLE8=Let's Chase Each Other Around The Room
TTITLE9=A Place To Fall Apart (with Janie Fricke)
TTITLE10=That's The Way Love Goes
TTITLE11=Someday When Things Are Good
TTITLE12=Yesterday's Wine (with George Jones)
TTITLE13=My Favorite Memory
TTITLE14=I Always Get Lucky With You
TTITLE15=Stop The World (And Let Me Off)
TTITLE16=A Friend In Califonia
TTITLE17=The Okie' From Muskogee's Comin' Home
TTITLE18=Carryin' Fire
TTITLE19=If You Hated Me
TTITLE20=Big Butter And Egg Man
TTITLE21=Good Old American Guest
EXTD=YEAR: 1988
EXTT0=
EXTT1=
EXTT2=
EXTT3=
EXTT4=
EXTT5=
EXTT6=
EXTT7=
EXTT8=
EXTT9=
EXTT10=
EXTT11=
EXTT12=
EXTT13=
EXTT14=
EXTT15=
EXTT16=
EXTT17=
EXTT18=
EXTT19=
EXTT20=
EXTT21=
PLAYORDER=
